<svg width="75" height="75" viewBox="0 0 75 75" fill="none" xmlns="http://www.w3.org/2000/svg">
<g clip-path="url(#clip0_4_5)">
<path d="M74.8084 16.1357C71.3787 11.2376 64.5596 9.94678 59.6607 13.3765L34.4711 31.0142L25.3115 24.5999C28.722 18.7115 27.1178 11.0917 21.4393 7.1161C15.4428 2.91866 7.18085 4.37531 2.98166 10.3707C-1.21564 16.3663 0.239853 24.63 6.23652 28.8292C10.3513 31.7103 15.5344 31.9263 19.7374 29.8414L30.9563 37.6965L19.7384 45.5508C15.5354 43.4669 10.3526 43.6829 6.23753 46.563C0.241158 50.7622 -1.21448 59.025 2.98267 65.0205C7.18186 71.0169 15.4447 72.4736 21.4402 68.2761C27.1179 64.3005 28.7219 56.6807 25.3123 50.7924L34.4719 44.378L59.6605 62.0147C64.5595 65.4454 71.3785 64.1538 74.8082 59.2555L44.0153 37.6964L74.8084 16.1357ZM13.8671 24.8721C10.0728 24.8721 6.99674 21.796 6.99674 18.0017C6.99674 14.2074 10.073 11.1313 13.8671 11.1313C17.6623 11.1313 20.7375 14.2074 20.7375 18.0017C20.7375 21.796 17.6623 24.8721 13.8671 24.8721ZM13.8671 64.2623C10.0728 64.2623 6.99674 61.1862 6.99674 57.3919C6.99674 53.5977 10.0728 50.5216 13.8671 50.5216C17.6623 50.5216 20.7375 53.5977 20.7375 57.3919C20.7375 61.1861 17.6623 64.2623 13.8671 64.2623Z" fill="#99BAED"/>
</g>
<defs>
<clipPath id="clip0_4_5">
<rect width="74.2244" height="74.2244" fill="white" transform="translate(0.583984 0.584106)"/>
</clipPath>
</defs>
</svg>
