<svg width="113" height="99" viewBox="0 0 113 99" fill="none" xmlns="http://www.w3.org/2000/svg">
<path d="M112.671 20.6861C107.871 13.2609 97.8431 11.0036 90.3889 15.832L52.0607 40.6628L38.859 30.702C44.2491 22.1583 42.3094 10.7968 34.125 4.6229C25.4822 -1.89546 13.159 -0.158741 6.59442 8.5033C0.0326143 17.1659 1.71508 29.4731 10.3581 35.9941C16.2887 40.4682 23.9548 41.0512 30.3008 38.1782L46.4706 50.3766L29.4017 61.4341C23.2947 58.1356 15.6043 58.1921 9.34285 62.2467C0.218812 68.1585 -2.41136 80.3166 3.46277 89.4053C9.33985 98.4955 21.4973 101.072 30.6199 95.1623C39.2591 89.5653 42.0721 78.3667 37.3586 69.4766L51.2958 60.4463L87.6002 87.8346C94.661 93.1621 104.837 91.5963 110.199 84.5194L65.8168 51.0398L112.671 20.6861ZM21.8893 30.5237C16.2682 30.331 11.8875 25.621 12.105 20.004C12.3226 14.3871 17.0562 9.98955 22.677 10.1823C28.2993 10.3751 32.6788 15.085 32.4613 20.702C32.2437 26.3189 27.5116 30.7165 21.8893 30.5237ZM19.631 88.8358C14.0099 88.6431 9.6292 83.933 9.84673 78.3161C10.0643 72.6991 14.7977 68.3016 20.4187 68.4944C26.041 68.6871 30.4205 73.3971 30.203 79.0141C29.9854 84.6308 25.2533 89.0286 19.631 88.8358Z" fill="#99BAED"/>
</svg>
